
Nanny McPhee arrives to help a harried young mother who is trying to run the family farm while her husband is away at war, though she uses her magic to teach the woman's children and their two spoiled cousins five new lessons.

  
http://www.imdb.com/title/tt1415283/
Genre:Comedy | Family | Fantasy 


 
Video
ID : 0
Format : MPEG-4 Visual
Format profile : Advanced Simple@L5
Format settings, BVOP : Yes
Format settings, QPel : No
Format settings, GMC : No warppoints
Format settings, Matrix : Default (H.263)
Codec ID : XVID
Codec ID/Hint : XviD
Duration : 1h 44mn
Bit rate : 792 Kbps
Width : 576 pixels
Height : 240 pixels
Display aspect ratio : 2.40:1
Frame rate : 25.000 fps
Resolution : 8 bits
Colorimetry : 4:2:0
Scan type : Progressive
Bits/(Pixel*Frame) : 0.229
Stream size : 594 MiB (85%)
Writing library : XviD 1.2.1 (UTC 2008-12-04)

Audio
ID : 1
Format : MPEG Audio
Format version : Version 1
Format profile : Layer 3
Mode : Joint stereo
Format_Settings_ModeExtension : MS Stereo
Codec ID : 55
Codec ID/Hint : MP3
Duration : 1h 44mn
Bit rate mode : Variable
Bit rate : 129 Kbps
Nominal bit rate : 128 Kbps
Channel(s) : 2 channels
Sampling rate : 48.0 KHz
Stream size : 96.7 MiB (14%)
Alignment : Aligned on interleaves
Interleave, duration : 24 ms (0.60 video frame)
Interleave, preload duration : 136 ms
Writing library : LAME3.90.
Encoding settings : -m j -V 4 -q 2 -lowpass 17.6 --abr 128



R E L E A S E - I N F O

Movie Name: Nanny.McPhee.And.The.Big.Bang.DVDRip.XviD-ALLiANCE
Release Date: 13 July 2010
Theatre Date: 26 March 2010
DVD Date: 19 july 2010
Runtime: 105 min
CD info: 1CD 576x240 @ 797kbs
Audio: english mp3 129kbs
Subs: english hungarian hindi arabic islenska
Rating: 6.7/10 701 votes
IMDB: http://www.imdb.com/title/tt1415283/
Plot Outline: Nanny McPhee arrives to help a harried young mother who is
trying to run the family farm while her husband is away at war, though she uses
her magic to teach the woman's children and their two spoiled cousins five new lessons



screenshots
 
http://postimg.com/image/18000/17751.jpg